<svg width="30" height="34" viewBox="0 0 30 34" fill="none" xmlns="http://www.w3.org/2000/svg">
<path d="M18.3867 15.5267H25.764C29.1587 15.5267 24.7454 1.00004 22.3134 1.00004H5.61871C5.28087 0.9972 4.95572 1.12859 4.71471 1.36536C4.4737 1.60212 4.33654 1.92488 4.33337 2.26271V14.776C4.33337 15.2387 4.59071 15.664 5.00271 15.8854C7.75204 17.36 10.9774 18.568 12.5734 21.3907L14.28 24.412C14.3818 24.5916 14.5296 24.7407 14.7082 24.844C14.8868 24.9474 15.0897 25.0013 15.296 25C19.536 25 18.2787 18.8267 17.7027 16.3734C17.6795 16.2712 17.6798 16.1652 17.7035 16.0631C17.7272 15.9611 17.7737 15.8658 17.8395 15.7843C17.9054 15.7028 17.9888 15.6373 18.0836 15.5927C18.1783 15.5481 18.282 15.5255 18.3867 15.5267Z" stroke="black" stroke-width="2" stroke-linecap="round" stroke-linejoin="round"/>
<ellipse cx="15" cy="31.5" rx="15" ry="2.5" fill="#EFF4F7"/>
</svg>
