  <svg width="477" height="244" viewBox="0 0 477 244" fill="none" xmlns="http://www.w3.org/2000/svg">
            <path d="M240.127 243.74C246.116 244.228 301.249 247.808 337.767 205.042C354.536 184.919 363.857 159.632 364.162 133.44C364.685 105.415 373.633 78.1972 389.841 55.3288C420.727 12.2374 466.325 2.08297 477 0H0C31.5077 3.59072 60.5442 18.8013 81.435 42.6593C102.326 66.5172 113.569 97.3078 112.969 129.014C112.922 133.371 113.227 137.724 113.88 142.032C116.759 161.327 124.349 179.615 135.979 195.278C171.162 242.08 229.029 243.642 236.873 243.74H240.127Z" fill="#C4616E" />
            <path d="M194.262 64.2028C194.808 62.5303 195.878 61.1328 197.296 60.224C204.366 55.6799 217.253 48.9594 234.396 47.9131C256.256 46.5767 272.83 55.1988 280.559 60.0941C282.107 61.0717 283.244 62.6372 283.745 64.4854C285.459 70.8088 287.067 79.2095 287.219 89.1528C287.386 100.234 285.695 109.551 283.882 116.379C283.313 118.517 281.872 120.266 279.968 121.167C271.04 125.383 255.824 130.904 236.535 130.393C219.604 129.95 206.224 125.031 197.858 121.052C196.067 120.205 194.71 118.586 194.08 116.6C191.88 109.689 189.582 99.3787 190.136 86.8617C190.553 77.6286 192.396 69.9153 194.262 64.2028Z" fill="white" stroke="black" stroke-width="3" stroke-miterlimit="10" />
            <path d="M190.166 72.7333C188.937 72.7333 186.874 72.7333 184.925 72.7333C181.837 72.7333 179.145 74.8182 178.356 77.8195C177.559 80.8361 176.915 84.5324 176.869 88.7709C176.816 93.4066 177.491 97.4313 178.341 100.654C179.137 103.671 181.822 105.778 184.917 105.778H190.447C190.879 105.778 191.198 105.389 191.122 104.969C190.409 100.96 189.855 96.2857 189.756 91.062C189.62 84.4484 190.242 78.629 191.076 73.8406C191.182 73.2602 190.75 72.7333 190.166 72.7333Z" fill="white" stroke="black" stroke-width="3" stroke-miterlimit="10" />
            <path d="M287.833 72.7333C289.062 72.7333 291.125 72.7333 293.075 72.7333C296.162 72.7333 298.855 74.8182 299.644 77.8195C300.44 80.8361 301.085 84.5324 301.13 88.7709C301.183 93.4066 300.508 97.4313 299.659 100.654C298.862 103.671 296.177 105.778 293.082 105.778H287.553C287.12 105.778 286.802 105.389 286.878 104.969C287.591 100.96 288.144 96.2857 288.243 91.062C288.38 84.4484 287.758 78.629 286.923 73.8406C286.817 73.2602 287.249 72.7333 287.833 72.7333Z" fill="white" stroke="black" stroke-width="3" stroke-miterlimit="10" />
            <path d="M220.484 84.5706C225.092 84.5706 228.828 80.8095 228.828 76.17C228.828 71.5304 225.092 67.7693 220.484 67.7693C215.876 67.7693 212.14 71.5304 212.14 76.17C212.14 80.8095 215.876 84.5706 220.484 84.5706Z" fill="black" />
            <path d="M253.101 84.5706C257.709 84.5706 261.444 80.8095 261.444 76.17C261.444 71.5304 257.709 67.7693 253.101 67.7693C248.492 67.7693 244.757 71.5304 244.757 76.17C244.757 80.8095 248.492 84.5706 253.101 84.5706Z" fill="black" />
            <path d="M215.084 98.1568C213.377 97.6833 212.027 99.6078 213.013 101.097C219.028 110.223 229.359 115.668 240.213 115.119C250.029 114.63 258.987 109.299 264.372 101.036C265.328 99.5697 263.94 97.6833 262.264 98.1492C256.165 99.8446 248.14 101.372 238.689 101.372C229.23 101.372 221.19 99.8522 215.084 98.1568Z" fill="black" />
            <path d="M249.346 47.9131C246.069 47.4396 242.246 47.1036 237.968 47.1494C234.312 47.1876 231.005 47.4931 228.108 47.9131C227.425 45.6678 226.735 43.4302 226.052 41.1849C225.438 39.1688 226.348 37.0075 228.214 36.0529C230.687 34.7851 234.282 33.4716 238.727 33.4028C243.377 33.3265 247.162 34.64 249.763 35.9383C251.751 36.9311 252.646 39.2833 251.849 41.3606C251.015 43.5447 250.181 45.7289 249.346 47.9131Z" fill="#F8D300" stroke="black" stroke-width="3" stroke-miterlimit="10" />
            <path d="M237.589 33.4029C237.589 32.3871 237.589 31.3638 237.589 30.3481C237.589 26.1477 239.554 24.9411 241.382 25.0022C243.179 25.0633 245.265 27.3926 244.848 30.4473" stroke="black" stroke-width="3" stroke-miterlimit="10" />
            <path d="M232.826 139.939L219.263 135.02C216.631 134.066 213.863 136.029 213.863 138.839V151.616C213.863 154.655 217.048 156.618 219.734 155.228L233.03 148.37C232.628 147.484 232.029 145.857 232.06 143.742C232.097 142.092 232.499 140.771 232.826 139.939Z" fill="white" stroke="black" stroke-width="3" stroke-miterlimit="10" />
            <path d="M244.962 139.939L258.524 135.02C261.156 134.066 263.925 136.029 263.925 138.839V151.616C263.925 154.655 260.739 156.618 258.054 155.228L244.757 148.37C245.159 147.484 245.758 145.857 245.728 143.742C245.698 142.092 245.296 140.771 244.962 139.939Z" fill="white" stroke="black" stroke-width="3" stroke-miterlimit="10" />
            <path d="M238.894 149.867C242.245 149.867 244.962 147.131 244.962 143.757C244.962 140.383 242.245 137.648 238.894 137.648C235.543 137.648 232.826 140.383 232.826 143.757C232.826 147.131 235.543 149.867 238.894 149.867Z" fill="white" stroke="black" stroke-width="3" stroke-miterlimit="10" />
            <path d="M213.726 142.696L194.96 148.851C192.988 149.5 191.388 150.951 190.546 152.86L188.831 156.74" stroke="black" stroke-width="3" stroke-miterlimit="10" />
            <path d="M188.831 156.74C188.338 156.74 181.094 159.008 176.096 160.589C173.949 161.269 173.289 164.003 174.882 165.599C175.36 166.416 175.959 167.302 176.687 168.203C178.546 170.471 180.571 171.953 182.149 172.892C182.96 173.709 184.174 173.984 185.251 173.603C186.267 173.244 187.094 172.35 187.231 171.098L188.831 156.74Z" fill="#91DAF1" stroke="black" stroke-width="3" stroke-miterlimit="10" />
            <path d="M264.274 141.168L283.04 147.324C285.012 147.973 286.612 149.424 287.454 151.333L289.169 155.213" stroke="black" stroke-width="3" stroke-miterlimit="10" />
            <path d="M289.169 155.213C289.662 155.213 296.906 157.481 301.904 159.062C304.051 159.741 304.711 162.475 303.118 164.072C302.64 164.889 302.041 165.775 301.313 166.676C299.454 168.944 297.429 170.426 295.851 171.365C295.04 172.182 293.826 172.457 292.749 172.075C291.733 171.716 290.906 170.823 290.769 169.57L289.169 155.213Z" fill="#91DAF1" stroke="black" stroke-width="3" stroke-miterlimit="10" />
            <path d="M239 165.523C258.689 165.523 274.651 164.497 274.651 163.232C274.651 161.966 258.689 160.94 239 160.94C219.311 160.94 203.349 161.966 203.349 163.232C203.349 164.497 219.311 165.523 239 165.523Z" fill="black" />
            <path d="M215.782 181.026C215.782 183.439 215.015 185.363 213.491 186.799C211.966 188.235 209.918 188.945 207.37 188.945C205.253 188.945 203.6 188.281 202.394 186.944C201.195 185.608 200.596 183.76 200.596 181.385C200.596 178.887 201.324 176.947 202.773 175.573C204.199 174.221 206.171 173.541 208.689 173.541C210.806 173.541 212.512 174.229 213.825 175.596C215.137 176.963 215.782 178.78 215.782 181.026ZM213.127 181.049C213.127 179.399 212.694 178.108 211.83 177.177C210.965 176.245 209.782 175.779 208.28 175.779C204.927 175.779 203.251 177.642 203.251 181.362C203.251 183.08 203.615 184.401 204.343 185.325C205.071 186.249 206.118 186.708 207.476 186.708C209.236 186.708 210.616 186.211 211.625 185.218C212.626 184.226 213.127 182.836 213.127 181.049Z" fill="black" />
            <path d="M232.325 182.11C232.325 184.638 231.635 186.624 230.247 188.067C228.859 189.51 226.97 190.228 224.565 190.228C223.185 190.228 222.017 189.831 221.046 189.044C221.038 189.739 220.978 190.236 220.856 190.526C220.659 191.038 220.265 191.29 219.673 191.29C218.839 191.29 218.421 190.809 218.421 189.839C218.421 189.846 218.444 189.411 218.49 188.533C218.543 187.509 218.581 186.425 218.611 185.279C218.656 183.63 218.679 181.866 218.679 179.995C218.679 177.207 218.588 175.13 218.399 173.763C218.338 173.259 218.232 172.686 218.08 172.037C217.966 171.502 217.906 171.174 217.906 171.036C217.906 170.784 218.034 170.555 218.292 170.349C218.55 170.151 218.846 170.051 219.172 170.051C219.9 170.051 220.393 170.555 220.651 171.563C220.841 172.274 221.008 173.877 221.16 176.382C222.586 175.42 224.095 174.939 225.696 174.939C227.744 174.939 229.359 175.573 230.55 176.833C231.733 178.101 232.325 179.865 232.325 182.11ZM229.67 182.186C229.67 180.606 229.276 179.368 228.494 178.452C227.713 177.543 226.666 177.085 225.347 177.085C223.465 177.085 222.077 177.749 221.198 179.078V180.972C221.198 181.866 221.19 182.828 221.182 183.859C221.175 184.89 221.167 185.47 221.167 185.593V185.615C221.895 187.158 223.086 187.929 224.74 187.929C226.181 187.929 227.357 187.402 228.282 186.349C229.215 185.31 229.67 183.92 229.67 182.186Z" fill="black" />
            <path d="M247.86 179.46C247.86 180.315 247.541 180.949 246.896 181.354C246.608 181.537 245.713 181.766 244.188 182.057C242.171 182.446 240.449 182.637 239.03 182.637C238.378 182.637 237.597 182.599 236.687 182.515C236.687 185.608 237.961 187.158 240.51 187.158C241.215 187.158 241.845 186.975 242.413 186.601C242.702 186.417 243.21 185.982 243.946 185.279C244.211 185.027 244.492 184.898 244.788 184.898C245.159 184.898 245.485 185.027 245.751 185.287C246.024 185.547 246.161 185.86 246.161 186.242C246.161 186.555 246.032 186.845 245.774 187.105C244.241 188.647 242.451 189.419 240.403 189.419C236.156 189.419 234.032 187.15 234.032 182.606C234.032 180.262 234.707 178.246 236.057 176.543C237.597 174.611 239.501 173.648 241.761 173.648C243.528 173.648 244.985 174.191 246.138 175.29C247.291 176.39 247.86 177.78 247.86 179.46ZM245.205 179.613C245.152 178.475 244.826 177.566 244.241 176.902C243.657 176.237 242.914 175.901 242.019 175.901C240.866 175.901 239.842 176.283 238.962 177.047C238.052 177.818 237.377 178.91 236.937 180.323C237.566 180.392 238.242 180.422 238.947 180.422C240.676 180.422 242.762 180.155 245.205 179.613Z" fill="black" />
            <path d="M260.004 174.313C260.004 175.351 259.548 177.138 258.646 179.682C257.811 182.034 256.31 185.004 254.14 188.617C253.708 189.434 253.268 190.243 252.82 191.053C252.441 191.687 251.986 192 251.463 192C251.152 192 250.871 191.878 250.613 191.633C250.363 191.389 250.234 191.114 250.234 190.816C250.234 190.282 250.628 189.388 251.41 188.143C253.2 185.256 254.125 183.76 254.186 183.66C252.449 181.491 251.068 179.475 250.059 177.604C249.248 176.115 248.846 175.115 248.846 174.588C248.846 173.847 249.225 173.48 249.991 173.48C250.469 173.48 250.954 173.87 251.432 174.641C251.865 175.504 252.297 176.367 252.729 177.23C253.488 178.734 254.368 180.132 255.361 181.43C256.021 179.865 256.545 178.223 256.932 176.527C257.349 174.763 257.561 173.862 257.569 173.832C257.827 173.16 258.229 172.823 258.775 172.823C259.594 172.823 260.004 173.32 260.004 174.313Z" fill="black" />
            <path d="M276.395 171.342C276.395 171.296 276.342 171.907 276.236 173.19C276.122 174.679 276.024 176.26 275.94 177.933C275.841 180.346 275.796 182.92 275.796 185.646C275.796 186.204 275.804 186.776 275.811 187.364C275.819 187.952 275.826 188.258 275.826 188.296C275.826 189.518 275.409 190.129 274.567 190.129C273.649 190.129 273.187 189.442 273.187 188.059C273.187 187.739 273.194 187.487 273.217 187.311C271.541 188.838 269.591 189.602 267.384 189.602C265.541 189.602 264.077 189.052 262.992 187.945C261.915 186.837 261.376 185.325 261.376 183.393C261.376 180.766 262.158 178.643 263.728 177.024C265.298 175.405 267.346 174.595 269.887 174.595C271.07 174.595 272.292 174.847 273.551 175.344C273.611 173.068 273.695 171.709 273.801 171.25C273.998 170.41 274.491 169.99 275.273 169.99C276.016 169.998 276.395 170.448 276.395 171.342ZM273.407 177.749C272.246 177.077 271.078 176.741 269.902 176.741C268.089 176.741 266.663 177.322 265.617 178.475C264.57 179.628 264.046 181.194 264.046 183.172C264.046 184.523 264.395 185.577 265.108 186.333C265.814 187.082 266.785 187.464 268.029 187.464C269.591 187.464 270.782 186.983 271.594 186.02C271.821 185.699 272.049 185.379 272.276 185.05C272.534 184.707 272.853 184.5 273.232 184.432C273.232 182.118 273.293 179.895 273.407 177.749Z" fill="black" />
          </svg>