<svg width="30" height="34" viewBox="0 0 30 34" fill="none" xmlns="http://www.w3.org/2000/svg">
<path d="M18.3867 10.4733H25.764C29.1587 10.4733 24.7454 25 22.3134 25H5.61871C5.28087 25.0028 4.95572 24.8714 4.71471 24.6347C4.4737 24.3979 4.33654 24.0752 4.33337 23.7373V11.224C4.33337 10.7613 4.59071 10.336 5.00271 10.1147C7.75204 8.63999 10.9774 7.43199 12.5734 4.60932L14.28 1.58799C14.3818 1.40847 14.5296 1.25934 14.7082 1.15598C14.8868 1.05263 15.0897 0.998776 15.296 0.99999C19.536 0.99999 18.2787 7.17332 17.7027 9.62666C17.6795 9.7288 17.6798 9.83488 17.7035 9.9369C17.7272 10.0389 17.7737 10.1343 17.8395 10.2157C17.9054 10.2972 17.9888 10.3627 18.0836 10.4073C18.1783 10.4519 18.282 10.4745 18.3867 10.4733Z" stroke="black" stroke-width="2" stroke-linecap="round" stroke-linejoin="round"/>
<ellipse cx="15" cy="31.5" rx="15" ry="2.5" fill="#EFF4F7"/>
</svg>
