<svg width="30" height="35" viewBox="0 0 30 35" fill="none" xmlns="http://www.w3.org/2000/svg">
<path d="M11 9.66799C11.2227 9.66169 11.4445 9.70012 11.6521 9.78101C11.8597 9.8619 12.049 9.9836 12.2088 10.1389C12.3686 10.2943 12.4956 10.48 12.5823 10.6853C12.6691 10.8906 12.7138 11.1112 12.7138 11.334C12.7138 11.5568 12.6691 11.7774 12.5823 11.9827C12.4956 12.1879 12.3686 12.3737 12.2088 12.529C12.049 12.6844 11.8597 12.8061 11.6521 12.887C11.4445 12.9679 11.2227 13.0063 11 13C10.5579 13 10.134 12.8244 9.82145 12.5118C9.50889 12.1993 9.33329 11.7753 9.33329 11.3333C9.33329 10.8913 9.50889 10.4674 9.82145 10.1548C10.134 9.84225 10.5579 9.66666 11 9.66666M19 9.66666C19.2227 9.66035 19.4445 9.69878 19.6521 9.77967C19.8597 9.86056 20.049 9.98227 20.2088 10.1376C20.3686 10.2929 20.4956 10.4787 20.5823 10.684C20.6691 10.8892 20.7138 11.1098 20.7138 11.3327C20.7138 11.5555 20.6691 11.7761 20.5823 11.9813C20.4956 12.1866 20.3686 12.3724 20.2088 12.5277C20.049 12.683 19.8597 12.8047 19.6521 12.8856C19.4445 12.9665 19.2227 13.005 19 12.9987C18.5663 12.9864 18.1545 12.8055 17.852 12.4944C17.5496 12.1833 17.3804 11.7665 17.3804 11.3327C17.3804 10.8988 17.5496 10.482 17.852 10.1709C18.1545 9.85983 18.5663 9.67893 19 9.66666ZM9.99996 18C9.73474 18 9.48039 18.1053 9.29285 18.2929C9.10532 18.4804 8.99996 18.7348 8.99996 19C8.99996 19.2652 9.10532 19.5196 9.29285 19.7071C9.48039 19.8946 9.73474 20 9.99996 20H20C20.2652 20 20.5195 19.8946 20.7071 19.7071C20.8946 19.5196 21 19.2652 21 19C21 18.7348 20.8946 18.4804 20.7071 18.2929C20.5195 18.1053 20.2652 18 20 18H9.99996ZM1.66663 14C1.66663 6.63599 7.63596 0.666656 15 0.666656C22.364 0.666656 28.3333 6.63599 28.3333 14C28.3333 21.364 22.364 27.3333 15 27.3333C7.63596 27.3333 1.66663 21.364 1.66663 14ZM15 2.66666C11.9942 2.66666 9.11149 3.8607 6.98608 5.98611C4.86067 8.11153 3.66663 10.9942 3.66663 14C3.66663 17.0058 4.86067 19.8885 6.98608 22.0139C9.11149 24.1393 11.9942 25.3333 15 25.3333C18.0057 25.3333 20.8884 24.1393 23.0138 22.0139C25.1392 19.8885 26.3333 17.0058 26.3333 14C26.3333 10.9942 25.1392 8.11153 23.0138 5.98611C20.8884 3.8607 18.0057 2.66666 15 2.66666Z" fill="black"/>
<ellipse cx="15" cy="32.5" rx="15" ry="2.5" fill="#EFF4F7"/>
</svg>
