<svg width="30" height="34" viewBox="0 0 30 34" fill="none" xmlns="http://www.w3.org/2000/svg">
<path d="M16 25C18.3734 25 20.6935 24.2962 22.6668 22.9776C24.6402 21.6591 26.1783 19.7849 27.0866 17.5922C27.9948 15.3995 28.2324 12.9867 27.7694 10.6589C27.3064 8.33115 26.1635 6.19295 24.4853 4.51472C22.8071 2.83649 20.6689 1.6936 18.3411 1.23058C16.0133 0.767559 13.6005 1.0052 11.4078 1.91345C9.21509 2.8217 7.34094 4.35977 6.02237 6.33316C4.70379 8.30655 4 10.6266 4 13C4 14.984 4.48 16.8533 5.33333 18.5027L4 25L10.4973 23.6667C12.1453 24.5187 14.0173 25 16 25Z" stroke="black" stroke-width="2" stroke-linecap="round" stroke-linejoin="round"/>
<ellipse cx="15" cy="31.5" rx="15" ry="2.5" fill="#EFF4F7"/>
</svg>
